<?xml version="1.0" encoding="UTF-8" standalone="no"?>
<svg
   xmlns:dc="http://purl.org/dc/elements/1.1/"
   xmlns:cc="http://creativecommons.org/ns#"
   xmlns:rdf="http://www.w3.org/1999/02/22-rdf-syntax-ns#"
   xmlns:svg="http://www.w3.org/2000/svg"
   xmlns="http://www.w3.org/2000/svg"
   xmlns:sodipodi="http://sodipodi.sourceforge.net/DTD/sodipodi-0.dtd"
   xmlns:inkscape="http://www.inkscape.org/namespaces/inkscape"
   class="svg-icon"
   style="overflow:hidden;fill:currentColor"
   viewBox="0 0 800 800"
   version="1.1"
   id="svg4"
   sodipodi:docname="gear.svg"
   width="800"
   height="800"
   inkscape:version="1.0.2-2 (e86c870879, 2021-01-15)">
  <metadata
     id="metadata10">
    <rdf:RDF>
      <cc:Work
         rdf:about="">
        <dc:format>image/svg+xml</dc:format>
        <dc:type
           rdf:resource="http://purl.org/dc/dcmitype/StillImage" />
        <dc:title></dc:title>
      </cc:Work>
    </rdf:RDF>
  </metadata>
  <defs
     id="defs8" />
  <sodipodi:namedview
     pagecolor="#ffffff"
     bordercolor="#666666"
     borderopacity="1"
     objecttolerance="10"
     gridtolerance="10"
     guidetolerance="10"
     inkscape:pageopacity="0"
     inkscape:pageshadow="2"
     inkscape:window-width="820"
     inkscape:window-height="480"
     id="namedview6"
     showgrid="false"
     inkscape:zoom="0.21728516"
     inkscape:cx="535.4087"
     inkscape:cy="429.15058"
     inkscape:window-x="1538"
     inkscape:window-y="239"
     inkscape:window-maximized="0"
     inkscape:current-layer="svg4" />
  <path
     d="M 467.05333,802.70895 H 340.27934 c -11.19161,0 -21.03252,-8.32043 -23.15506,-19.3422 l -15.24375,-78.72722 c -14.47192,-4.83169 -27.78608,-10.05702 -40.32841,-16.24714 l -67.14969,45.65407 a 23.656759,23.656759 0 0 1 -29.90863,-2.9021 l -89.532917,-89.942 A 23.749379,23.749379 0 0 1 72.0665,611.21655 l 45.34534,-66.91814 A 295.58985,295.58985 0 0 1 100.81737,503.48375 L 21.897191,488.2014 C 10.898535,486.07114 2.215385,476.40004 2.215385,464.99231 V 337.90959 c 0,-11.21477 8.68315,-21.07882 19.874765,-23.20909 L 100.2385,299.61111 A 329.83619,329.83619 0 0 1 116.64,258.61121 L 71.873541,192.45719 C 65.505898,183.172 66.85661,170.59881 74.767924,162.47909 L 164.4938,72.730062 a 23.880591,23.880591 0 0 1 29.90863,-2.902102 l 65.79898,44.87452 c 13.1212,-6.57604 27.01425,-12.195 41.67912,-17.026692 L 316.93132,19.342199 C 319.05387,8.3203871 328.70181,0 340.08639,0 h 126.77398 c 11.19162,0 21.03252,8.3203871 23.15507,19.342199 l 15.05079,78.140626 a 314.50754,314.50754 0 0 1 41.48616,16.640775 l 66.18489,-44.874517 a 23.656759,23.656759 0 0 1 29.90863,2.894384 l 89.53293,89.941993 a 23.749379,23.749379 0 0 1 2.89437,29.98581 l -45.15237,66.53222 a 327.42807,327.42807 0 0 1 16.4015,40.42875 l 78.14837,15.28234 c 10.9986,2.13027 18.71699,11.80136 18.71699,23.2091 v 126.69679 c 0,11.21477 -7.71839,21.07884 -18.90997,23.2091 l -77.95539,15.28234 a 335.87195,335.87195 0 0 1 -16.20854,40.99991 l 45.53829,67.31177 a 23.556421,23.556421 0 0 1 -2.89438,29.98582 l -89.72588,89.74903 c -7.91131,8.11971 -20.45364,9.27746 -29.90863,2.89438 l -67.14969,-45.64635 a 314.99379,314.99379 0 0 1 -40.71432,16.63306 l -15.24375,78.92018 c -2.12255,10.82881 -11.7705,19.14924 -22.96211,19.14924 z m -107.4781,-48.3555 h 87.98925 l 14.086,-73.11598 a 23.232249,23.232249 0 0 1 16.59446,-17.98377 c 20.83957,-5.99716 40.32841,-13.93163 57.69471,-23.60273 7.71836,-4.25281 17.3663,-3.86689 24.69874,1.15776 l 62.71164,42.75196 62.13275,-62.28712 -42.45095,-62.85829 a 23.386616,23.386616 0 0 1 -0.96479,-24.76048 c 9.26202,-16.82601 16.98038,-35.7823 23.15506,-58.02659 2.31551,-8.51335 8.68315,-15.08939 17.3663,-16.63306 l 72.35958,-14.12459 V 356.68063 L 682.5884,342.3708 c -8.68315,-1.74435 -15.24375,-8.12743 -17.75222,-16.64078 C 658.85446,304.6512 651.1361,285.309 641.68112,268.08935 a 23.826563,23.826563 0 0 1 1.15775,-24.75277 l 42.06504,-62.09417 -62.13277,-62.2794 -61.74684,41.97241 c -7.33243,5.03238 -16.98037,5.41829 -24.69873,0.9648 -16.59447,-9.27746 -35.69739,-17.01898 -58.27358,-23.40206 -8.49019,-2.3155 -15.0508,-9.09221 -16.59447,-17.7908 L 447.56448,48.363214 h -88.18221 l -14.086,72.537096 a 23.232249,23.232249 0 0 1 -16.59446,17.98377 c -21.41844,5.99716 -41.10024,14.12459 -58.6595,23.98865 -7.71835,4.25282 -17.36629,3.85918 -24.69874,-1.15775 l -61.36092,-41.78717 -62.13276,62.28712 41.87208,61.89349 c 5.01693,7.34788 5.40285,16.82601 1.15775,24.56752 -9.26203,16.63306 -16.78742,35.58162 -22.9621,57.83365 -2.31551,8.69858 -9.64795,15.08166 -18.3311,16.82601 l -72.938456,14.12458 v 88.19765 l 73.131416,14.12459 c 8.68315,1.73663 15.82263,8.11971 18.13814,16.62534 5.98172,21.08654 13.89304,40.42874 23.73394,57.83364 4.2451,7.7415 3.85918,17.4126 -0.9648,24.76048 l -42.45095,62.67304 62.13276,62.27942 62.71163,-42.55902 c 7.33244,-5.03237 16.78743,-5.41829 24.69874,-1.15775 16.59447,9.27746 35.31148,16.82602 57.30879,23.01613 8.49019,2.50847 15.05079,9.0845 16.59446,17.79082 z M 780.03264,471.95427 h 0.38592 z M 403.56985,586.64903 c -49.01155,0 -95.51464,-19.14153 -130.82611,-54.34494 -42.06504,-42.16537 -60.97501,-100.58561 -51.90594,-160.34883 11.96345,-78.72723 75.25396,-141.97143 153.78823,-154.15871 59.23837,-9.09222 117.70491,9.86405 159.76995,52.02943 42.06504,42.16538 61.16796,100.57789 52.0989,160.34883 -11.96345,78.72723 -75.25397,141.97143 -153.59527,154.15871 -9.84091,1.54367 -19.68181,2.31551 -29.32976,2.31551 z m 25.66354,-19.91336 h 0.38591 z M 403.76282,262.86402 c -7.33244,0 -14.47192,0.57888 -21.99732,1.73664 -57.50175,8.89926 -105.5485,57.06179 -114.42461,114.50951 -6.75357,44.68156 7.33244,88.39832 38.78473,119.92009 31.4523,31.52948 75.06101,45.65407 119.63451,38.88507 57.50174,-8.89926 105.54851,-57.06179 114.23165,-114.70247 6.75357,-44.68928 -7.33243,-88.39833 -38.78473,-119.92781 -26.2424,-26.30415 -60.78204,-40.42103 -97.44423,-40.42103 z"
     fill="#2e323f"
     id="path2"
     style="stroke-width:0.783895" />
</svg>
