<svg class="svg-icon" fill="currentColor" overflow="hidden" version="1.1" viewBox="0 0 800 800" xmlns="http://www.w3.org/2000/svg">
 <path d="m286.5 744.57a57.078 57.078 0 0 1-57.078 57.078h-57.078a57.078 57.078 0 0 1-57.078-57.078v-684.94a57.078 57.078 0 0 1 57.078-57.078h57.078a57.078 57.078 0 0 1 57.078 57.078zm399.55 0a57.078 57.078 0 0 1-57.078 57.078h-57.078a57.078 57.078 0 0 1-57.078-57.078v-684.94a57.078 57.078 0 0 1 57.078-57.078h57.078a57.078 57.078 0 0 1 57.078 57.078z" fill="#000" stroke-width="1.3378"/>
</svg>
