<?xml version="1.0" encoding="UTF-8" standalone="no"?>
<svg
   xmlns:dc="http://purl.org/dc/elements/1.1/"
   xmlns:cc="http://creativecommons.org/ns#"
   xmlns:rdf="http://www.w3.org/1999/02/22-rdf-syntax-ns#"
   xmlns:svg="http://www.w3.org/2000/svg"
   xmlns="http://www.w3.org/2000/svg"
   xmlns:sodipodi="http://sodipodi.sourceforge.net/DTD/sodipodi-0.dtd"
   xmlns:inkscape="http://www.inkscape.org/namespaces/inkscape"
   fill="#ff0000"
   height="800"
   width="800"
   version="1.1"
   id="Capa_1"
   viewBox="0 0 800 800"
   xml:space="preserve"
   sodipodi:docname="play.svg"
   inkscape:version="1.0.2-2 (e86c870879, 2021-01-15)"><metadata
   id="metadata11"><rdf:RDF><cc:Work
       rdf:about=""><dc:format>image/svg+xml</dc:format><dc:type
         rdf:resource="http://purl.org/dc/dcmitype/StillImage" /><dc:title></dc:title></cc:Work></rdf:RDF></metadata><defs
   id="defs9" /><sodipodi:namedview
   pagecolor="#ffffff"
   bordercolor="#666666"
   borderopacity="1"
   objecttolerance="10"
   gridtolerance="10"
   guidetolerance="10"
   inkscape:pageopacity="0"
   inkscape:pageshadow="2"
   inkscape:window-width="1081"
   inkscape:window-height="679"
   id="namedview7"
   showgrid="false"
   inkscape:zoom="0.278125"
   inkscape:cx="296.51338"
   inkscape:cy="447.97898"
   inkscape:window-x="1612"
   inkscape:window-y="305"
   inkscape:window-maximized="0"
   inkscape:current-layer="Capa_1" />
<g
   id="g4"
   transform="matrix(13.606817,0,0,13.606817,7.811721,-0.00157101)">
	<path
   d="M 52.524,23.925 12.507,0.824 C 10.6,-0.276 8.131,-0.273 6.231,0.824 4.293,1.94 3.088,4.025 3.088,6.264 v 46.205 c 0,2.24 1.204,4.325 3.131,5.435 0.953,0.555 2.042,0.848 3.149,0.848 1.104,0 2.192,-0.292 3.141,-0.843 L 52.526,34.806 c 1.936,-1.119 3.138,-3.203 3.138,-5.439 -0.001,-2.233 -1.202,-4.317 -3.14,-5.442 z m -3,5.687 -40.02,23.104 C 9.422,52.763 9.324,52.768 9.225,52.711 9.141,52.662 9.088,52.569 9.088,52.469 V 6.263 c 0,-0.1 0.052,-0.192 0.14,-0.243 0.042,-0.025 0.09,-0.038 0.139,-0.038 0.051,0 0.099,0.013 0.142,0.038 l 40.01,23.098 c 0.089,0.052 0.145,0.147 0.145,0.249 -0.001,0.103 -0.053,0.194 -0.14,0.245 z"
   id="path2" />
</g>
</svg>
