<?xml version="1.0" encoding="UTF-8" standalone="no"?>
<svg
   xmlns:dc="http://purl.org/dc/elements/1.1/"
   xmlns:cc="http://creativecommons.org/ns#"
   xmlns:rdf="http://www.w3.org/1999/02/22-rdf-syntax-ns#"
   xmlns:svg="http://www.w3.org/2000/svg"
   xmlns="http://www.w3.org/2000/svg"
   xmlns:sodipodi="http://sodipodi.sourceforge.net/DTD/sodipodi-0.dtd"
   xmlns:inkscape="http://www.inkscape.org/namespaces/inkscape"
   version="1.1"
   x="0px"
   y="0px"
   viewBox="0 0 800 800"
   enable-background="new 0 0 256 256"
   xml:space="preserve"
   id="svg10"
   sodipodi:docname="reset.svg"
   inkscape:version="1.0.2-2 (e86c870879, 2021-01-15)"
   width="800"
   height="800"><defs
   id="defs14" /><sodipodi:namedview
   pagecolor="#ffffff"
   bordercolor="#666666"
   borderopacity="1"
   objecttolerance="10"
   gridtolerance="10"
   guidetolerance="10"
   inkscape:pageopacity="0"
   inkscape:pageshadow="2"
   inkscape:window-width="1857"
   inkscape:window-height="1057"
   id="namedview12"
   showgrid="false"
   inkscape:zoom="0.43457032"
   inkscape:cx="-40.984907"
   inkscape:cy="158.76532"
   inkscape:window-x="1079"
   inkscape:window-y="-8"
   inkscape:window-maximized="1"
   inkscape:current-layer="svg10"
   inkscape:document-rotation="0" />
<metadata
   id="metadata2"> Svg Vector Icons : http://www.onlinewebfonts.com/icon <rdf:RDF><cc:Work
     rdf:about=""><dc:format>image/svg+xml</dc:format><dc:type
       rdf:resource="http://purl.org/dc/dcmitype/StillImage" /><dc:title></dc:title></cc:Work></rdf:RDF></metadata>
<g
   id="g8"
   transform="matrix(-3.3781201,0,0,3.3781201,833.35535,-31.781201)"><g
     id="g6"><path
       fill="#000000"
       d="m 235,94.8 h -48 c -6.1,0 -11.1,-5 -11.1,-11.1 0,-6.1 5,-11.1 11.1,-11.1 h 19.2 C 188.8,48 160.3,32 127.9,32 74.9,32 32,74.9 32,127.9 c 0,53 42.9,95.9 95.9,95.9 53,0 95.9,-42.9 95.9,-95.9 0,-6.1 5,-11.1 11.1,-11.1 6.1,0 11.1,5 11.1,11.1 0,65.2 -52.8,118 -118,118 C 62.9,245.9 10,193.1 10,127.9 10,62.8 62.8,10 128,10 c 39.5,0 74.5,19.5 95.9,49.4 V 39.5 c 0,-6.1 5,-11.1 11.1,-11.1 6.1,0 11.1,5 11.1,11.1 v 44.3 c -0.1,6.1 -5,11 -11.1,11 z"
       id="path4" /></g></g>
</svg>
