<?xml version="1.0" encoding="UTF-8" standalone="no"?>
<svg
   width="600"
   height="700"
   viewBox="0 0 158.75 185.20834"
   version="1.1"
   id="svg841"
   sodipodi:docname="ts-logo.svg"
   inkscape:version="1.3.2 (091e20e, 2023-11-25, custom)"
   xmlns:inkscape="http://www.inkscape.org/namespaces/inkscape"
   xmlns:sodipodi="http://sodipodi.sourceforge.net/DTD/sodipodi-0.dtd"
   xmlns="http://www.w3.org/2000/svg"
   xmlns:svg="http://www.w3.org/2000/svg"
   xmlns:rdf="http://www.w3.org/1999/02/22-rdf-syntax-ns#"
   xmlns:cc="http://creativecommons.org/ns#"
   xmlns:dc="http://purl.org/dc/elements/1.1/">
  <defs
     id="defs835" />
  <sodipodi:namedview
     id="base"
     pagecolor="#ffffff"
     bordercolor="#666666"
     borderopacity="1.0"
     inkscape:pageopacity="0.0"
     inkscape:pageshadow="2"
     inkscape:zoom="0.5"
     inkscape:cx="-51"
     inkscape:cy="607"
     inkscape:document-units="mm"
     inkscape:current-layer="layer1"
     inkscape:document-rotation="0"
     showgrid="false"
     inkscape:window-width="1858"
     inkscape:window-height="1057"
     inkscape:window-x="1072"
     inkscape:window-y="399"
     inkscape:window-maximized="1"
     units="px"
     inkscape:showpageshadow="0"
     inkscape:pagecheckerboard="1"
     inkscape:deskcolor="#505050" />
  <metadata
     id="metadata838">
    <rdf:RDF>
      <cc:Work
         rdf:about="">
        <dc:format>image/svg+xml</dc:format>
        <dc:type
           rdf:resource="http://purl.org/dc/dcmitype/StillImage" />
        <dc:title />
      </cc:Work>
    </rdf:RDF>
  </metadata>
  <g
     inkscape:label="Layer 1"
     inkscape:groupmode="layer"
     id="layer1">
    <g
       id="g1480"
       transform="matrix(0.96543049,0,0,0.97278398,-48.075098,-27.389814)">
      <path
         style="fill:#000000;fill-opacity:0;stroke:#000000;stroke-width:1.67856;stroke-opacity:1"
         d="m 160.32451,72.351406 h 44.43901 c 2.05021,0 3.7036,-1.704106 3.7036,-3.817197 V 37.87735 c 0,-2.113091 -1.65339,-3.817197 -3.7036,-3.817197 H 59.417678 c -2.050212,0 -3.703609,1.704106 -3.703609,3.817197 v 30.656859 c 0,2.113091 1.653397,3.817197 3.703609,3.817197 h 22.591075"
         id="path1454"
         sodipodi:nodetypes="cssssssssc" />
      <path
         style="fill:#ffffff;fill-opacity:0;stroke:#000000;stroke-width:1.65365;stroke-opacity:1"
         d="m 81.941635,72.452178 c -2.898196,11.476128 -1.86113,23.261268 3.094719,32.281432 6.680729,12.41888 17.627866,17.97513 31.485416,24.98659 l 1.78594,0.9095 c 10.00456,4.99401 21.99349,10.55026 29.88138,14.20482 11.6582,5.62239 15.97422,15.61041 13.29531,21.62969 -4.31602,9.7069 -13.85755,11.8401 -30.36094,7.16028 -14.56862,-3.95221 -28.01276,-15.11432 -31.766534,-18.43815 -0.562239,-0.49609 -1.30638,-0.7276 -2.067057,-0.62838 -0.744141,0.0992 -1.405599,0.52916 -1.81901,1.14101 l -17.958594,27.5332 c -0.677994,1.0418 -0.529166,2.41433 0.363802,3.27422 9.310026,8.9793 16.90026,14.20482 30.046743,20.67057 8.84701,4.34909 21.79505,6.96185 34.64388,6.96185 13.4276,0 46.2194,-3.10885 60.60612,-31.84921 9.17773,-18.38855 5.75469,-37.76927 -9.40924,-53.28047 -13.36146,-12.61732 -36.08256,-23.13451 -51.1142,-30.096355 -2.54661,-1.17408 -4.84518,-2.232419 -6.79648,-3.174999 -5.67201,-2.72851 -13.42761,-10.28567 -10.08724,-18.967309 2.24896,-5.87045 7.95404,-8.83047 16.98294,-8.83047 2.89388,0 6.06888,0.33073 9.45886,0.95911 5.08625,0.950101 6.00016,1.675872 9.07356,3.383499"
         id="path2-0"
         sodipodi:nodetypes="cccccccccccccscccccscc" />
    </g>
    <path
       style="fill:#000000;fill-opacity:0;stroke:#000000;stroke-width:12.2415;stroke-linecap:round;stroke-linejoin:round;stroke-dasharray:none;stroke-opacity:1"
       d="M 75.761621,178.35457 C 64.530792,176.37384 52.673638,170.79122 42.134656,162.52221 36.085482,157.77595 30.953515,152.3752 31.515591,151.34692 c 1.630887,-2.98355 15.538719,-25.9517 16.18752,-26.73296 0.639859,-0.77047 1.375093,-0.4313 3.788128,1.74748 12.558174,11.33898 27.132627,18.08485 39.319648,18.1993 4.766814,0.0449 6.34329,-0.24885 9.057489,-1.68696 8.775884,-4.64991 10.124944,-15.1901 3.053984,-23.86094 C 100.48919,116.02916 97.635543,114.29223 78.345972,104.054 49.576829,88.784381 45.319841,85.746115 39.766283,76.519284 34.8397,68.334143 34.051981,63.501185 34.68091,45.318641 l 0.114077,-3.298 L 23.591806,41.654195 12.388629,41.28775 12.205406,25.256809 C 12.077312,14.048996 12.255531,8.9223756 12.797781,8.2171367 13.868203,6.8249521 145.06382,6.697969 146.35149,8.0878689 c 1.26185,1.3620491 1.14431,31.6258671 -0.12726,32.7649671 -0.6772,0.606649 -6.64242,0.779893 -21.21815,0.616236 -17.72047,-0.198969 -20.66122,-0.395813 -23.33151,-1.561745 -4.105842,-1.792729 -15.777424,-2.469848 -20.092855,-1.16567 -6.152199,1.859271 -10.579951,8.856693 -9.417698,14.883315 0.664388,3.445051 3.445072,8.262049 5.931126,10.274532 1.205342,0.975746 9.982841,5.901436 19.505535,10.945997 30.678652,16.25168 41.601862,26.014509 46.969182,41.979549 2.02515,6.0238 2.44368,16.64424 0.90785,23.03628 -2.75671,11.47313 -11.00295,23.34682 -20.54092,29.57675 -4.93818,3.22548 -13.30465,6.6602 -20.14362,8.26965 -6.776403,1.59473 -21.76366,1.92865 -29.031549,0.64684 z"
       id="path1482" />
  </g>
</svg>
