<svg width="30" height="30" version="1.1" viewBox="0 0 158.75 185.21">
    <g stroke="#25a6bc">
      <g transform="matrix(.96543 0 0 .97278 -48.075 -27.39)">
        <path
          strokeWidth="1.6786"
          d="m160.32 72.351h44.439c2.0502 0 3.7036-1.7041 3.7036-3.8172v-30.657c0-2.1131-1.6534-3.8172-3.7036-3.8172h-145.35c-2.0502 0-3.7036 1.7041-3.7036 3.8172v30.657c0 2.1131 1.6534 3.8172 3.7036 3.8172h22.591"
        />
        <path 
          strokeWidth="1.6786"
          d="m81.942 72.452c-2.8982 11.476-1.8611 23.261 3.0947 32.281 6.6807 12.419 17.628 17.975 31.485 24.987l1.7859 0.9095c10.005 4.994 21.993 10.55 29.881 14.205 11.658 5.6224 15.974 15.61 13.295 21.63-4.316 9.7069-13.858 11.84-30.361 7.1603-14.569-3.9522-28.013-15.114-31.767-18.438-0.56224-0.49609-1.3064-0.7276-2.0671-0.62838-0.74414 0.0992-1.4056 0.52916-1.819 1.141l-17.959 27.533c-0.67799 1.0418-0.52917 2.4143 0.3638 3.2742 9.31 8.9793 16.9 14.205 30.047 20.671 8.847 4.3491 21.795 6.9618 34.644 6.9618 13.428 0 46.219-3.1088 60.606-31.849 9.1777-18.389 5.7547-37.769-9.4092-53.28-13.361-12.617-36.083-23.135-51.114-30.096-2.5466-1.1741-4.8452-2.2324-6.7965-3.175-5.672-2.7285-13.428-10.286-10.087-18.967 2.249-5.8704 7.954-8.8305 16.983-8.8305 2.8939 0 6.0689 0.33073 9.4589 0.95911 5.0862 0.9501 6.0002 1.6759 9.0736 3.3835"
        />
      </g>
        <path
          strokeLinecap="round" strokeLinejoin="round" strokeWidth="12.242"
          d="m75.762 178.35c-11.231-1.9807-23.088-7.5634-33.627-15.832-6.0492-4.7463-11.181-10.147-10.619-11.175 1.6309-2.9836 15.539-25.952 16.188-26.733 0.63986-0.77047 1.3751-0.4313 3.7881 1.7475 12.558 11.339 27.133 18.085 39.32 18.199 4.7668 0.0449 6.3433-0.24885 9.0575-1.687 8.7759-4.6499 10.125-15.19 3.054-23.861-2.4332-2.9837-5.2868-4.7206-24.576-14.959-28.769-15.27-33.026-18.308-38.58-27.535-4.9266-8.1851-5.7143-13.018-5.0854-31.201l0.11408-3.298-22.406-0.73289-0.18322-16.031c-0.12809-11.208 0.050125-16.334 0.59238-17.04 1.0704-1.3922 132.27-1.5192 133.55-0.12927 1.2618 1.362 1.1443 31.626-0.12726 32.765-0.6772 0.60665-6.6424 0.77989-21.218 0.61624-17.72-0.19897-20.661-0.39581-23.332-1.5617-4.1058-1.7927-15.777-2.4698-20.093-1.1657-6.1522 1.8593-10.58 8.8567-9.4177 14.883 0.66439 3.4451 3.4451 8.262 5.9311 10.275 1.2053 0.97575 9.9828 5.9014 19.506 10.946 30.679 16.252 41.602 26.015 46.969 41.98 2.0252 6.0238 2.4437 16.644 0.90785 23.036-2.7567 11.473-11.003 23.347-20.541 29.577-4.9382 3.2255-13.305 6.6602-20.144 8.2696-6.7764 1.5947-21.764 1.9286-29.032 0.64684z"
        />
    </g>
  </svg>
